<svg xmlns="http://www.w3.org/2000/svg" xmlns:xlink="http://www.w3.org/1999/xlink" viewBox="0 0 1024 648">
    <defs>
        <style>.a,.g,.h,.n,.o,.p,.r,.w,.x,.y,.z{fill:none;}.b{clip-path:url(#a);}.c{fill:#ccc;}.d{fill:#f2f2f2;}.e,.f{fill:#b3b3b3;}.f{font-size:18px;font-family:rounded-l-mplus-1c-medium, rounded l-mplus-1c-medium;font-weight:500;}.g{stroke:#b3b3b3;stroke-width:3px;}.g,.h,.o,.p,.r,.w,.x,.y{stroke-miterlimit:10;}.h,.o,.p,.x,.y{stroke:#000;}.h{stroke-width:1.5px;}.i{font-size:28px;}.ab,.ae,.af,.ag,.ah,.ak,.i,.q{font-family:A-SOTMathCenturyStd-Regular, A SOTMathCenturyStd-Regular;}.j{font-size:38px;font-family:A-SOTGirishaStd-BoldItalic, A SOTGirishaStd-BoldItalic;}.j,.u{font-weight:700;}.ac,.ad,.ai,.aj,.j{font-style:italic;}.k{clip-path:url(#d);}.l{fill:#ffff80;}.m{clip-path:url(#e);}.n,.r{stroke:#ff4b00;}.n{stroke-linecap:round;stroke-linejoin:round;}.n,.w{stroke-width:4px;}.o{stroke-width:2px;}.p{stroke-dasharray:5.94 2.97;}.q{font-size:36px;}.r{stroke-dasharray:5.94 2.97;}.s{opacity:0.2;}.t{fill:#0b89dd;}.u{font-size:22px;font-family:A-SOTMathCenturyStd-Bold, A SOTMathCenturyStd-Bold;}.v{font-family:HiraKakuProN-W3, HiraKakuProN W3-90ms-RKSJ-H;font-weight:400;letter-spacing:0.13em;}.w{stroke:#0b89dd;}.y{stroke-width:0.6px;}.aa,.z{stroke:#231815;}.z{stroke-width:1.2px;}.aa,.ab,.ai{fill:#231815;}.aa{stroke-width:1.11px;}.ab{font-size:25.92px;}.ac,.ad,.ai,.aj{font-family:A-SOTGirishaStd-Italic, A SOTGirishaStd-Italic;}.ac{letter-spacing:0.25em;}.ad{letter-spacing:0em;}.ae{font-size:32px;}.af{font-size:28.8px;}.ag{font-size:19.2px;}.ah{font-size:17.28px;}.ai{font-size:15.55px;}.aj{font-size:26px;fill:#ff4b00;}.ak{font-style:normal;}</style>
        <clipPath id="a">
            <rect class="a" width="146" height="48" />
        </clipPath>
        <clipPath id="d">
            <rect class="a" x="365" y="52.8" width="50" height="400" />
        </clipPath>
        <clipPath id="e">
            <rect class="a" x="90" y="63.89" width="600" height="400" />
        </clipPath>
        <symbol id="f" viewBox="0 0 146 48">
            <g class="b">
                <g class="b">
                    <rect class="c" y="4" width="146" height="44" rx="14" />
                    <rect class="d" x="1.5" y="1.5" width="143" height="41" rx="12.5" />
                    <path class="e" d="M132,3a11,11,0,0,1,11,11V30a11,11,0,0,1-11,11H14A11,11,0,0,1,3,30V14A11,11,0,0,1,14,3H132m0-3H14A14,14,0,0,0,0,14V30A14,14,0,0,0,14,44H132a14,14,0,0,0,14-14V14A14,14,0,0,0,132,0Z" />
                </g>
                <text class="f" transform="translate(39.5 28.98)">最初に戻る</text>
                <g class="b">
                    <path class="g" d="M26.1,17.59A6.5,6.5,0,1,1,18.5,24" />
                    <polygon class="e" points="26.68 22.55 19.3 16.44 28.28 13.11 26.68 22.55" />
                </g>
            </g>
        </symbol>
    </defs>
    <title>グラフ-場面5</title>
    <line class="h" x1="690" y1="557.18" x2="90" y2="557.18" />
    <line class="h" x1="210" y1="568.18" x2="210" y2="546.18" />
    <line class="h" x1="90" y1="568.18" x2="90" y2="546.18" />
    <line class="h" x1="450" y1="568.18" x2="450" y2="546.18" />
    <line class="h" x1="570" y1="568.18" x2="570" y2="546.18" />
    <line class="h" x1="330" y1="568.18" x2="330" y2="546.18" />
    <line class="h" x1="690" y1="546.18" x2="690" y2="568.18" />
    <text class="i" transform="translate(202.82 537.41)">1</text>
    <text class="i" transform="translate(82.82 537.41)">0</text>
    <text class="i" transform="translate(322.82 537.41)">2</text>
    <text class="i" transform="translate(442.82 537.41)">3</text>
    <text class="i" transform="translate(562.82 537.41)">4</text>
    <text class="i" transform="translate(682.82 537.41)">5</text>
    <text class="j" transform="translate(58.69 565.38)">r</text>
    <g class="k">
        <path class="l" d="M690,443.89H90l-32.6-.25H231.87c9.61,0,19.23,0,28.84-.16,9.1-.17,18.45-.36,27.3-2.68a41,41,0,0,0,21.85-14.39c5.46-6.83,9.35-14.82,12.64-22.88,6.84-16.75,11.31-34.48,15.35-52.08,4.17-18.19,7.69-36.51,11-54.86,3.41-18.7,6.6-37.44,9.84-56.17s6.48-37.4,10.2-56c1.8-9,3.72-18,6-26.88,2.09-8.3,4.29-16.86,8.06-24.59,1.35-2.76,3.88-7.94,7.67-7.55,3.62.38,5.88,5.29,7.22,8.13,3.68,7.83,5.88,16.41,8,24.78,4.5,18.08,7.86,36.43,11.17,54.76,3.38,18.73,6.52,37.5,9.79,56.26C430,287.9,433.3,306.48,437,325c3.63,18.12,7.55,36.23,12.67,54a237.7,237.7,0,0,0,8.71,25.49c3.31,8,7.23,15.87,12.75,22.55a41,41,0,0,0,22.06,14c8.91,2.22,18.29,2.36,27.42,2.52,19.32.34,38.65.15,58,.15H723.09Z" />
    </g>
    <g class="m">
        <path class="n" d="M57.4,443.64H231.87c9.61,0,19.23,0,28.84-.16,9.1-.17,18.45-.36,27.3-2.68a41,41,0,0,0,21.85-14.39c5.46-6.83,9.35-14.82,12.64-22.88,6.84-16.75,11.31-34.48,15.35-52.08,4.17-18.19,7.69-36.51,11-54.86,3.41-18.7,6.6-37.44,9.84-56.17s6.48-37.4,10.2-56c1.8-9,3.72-18,6-26.88,2.09-8.3,4.29-16.86,8.06-24.59,1.35-2.76,3.88-7.94,7.67-7.55,3.62.38,5.88,5.29,7.22,8.13,3.68,7.83,5.88,16.41,8,24.78,4.5,18.08,7.86,36.43,11.17,54.76,3.38,18.73,6.52,37.5,9.79,56.26C430,287.9,433.3,306.48,437,325c3.63,18.12,7.55,36.23,12.67,54a237.7,237.7,0,0,0,8.71,25.49c3.31,8,7.23,15.87,12.75,22.55a41,41,0,0,0,22.06,14c8.91,2.22,18.29,2.36,27.42,2.52,19.32.34,38.65.15,58,.15H723.09" />
    </g>
    <line class="o" x1="90" y1="443.89" x2="673.7" y2="443.89" />
    <path d="M670.11,443.89l-4.39-7.21.25-.16,11.75,4.67,12.28,2.7-12.28,2.7L666,451.26l-.25-.12Z" />
    <line class="p" x1="390" y1="443.89" x2="390" y2="63.89" />
    <text class="q" transform="translate(673.33 473.06)">x</text>
    <text class="q" transform="translate(374.99 478.9)">m</text>
    <line class="r" x1="415" y1="443.89" x2="415" y2="202.23" />
    <line class="r" x1="365" y1="443.89" x2="365" y2="202.23" />
    <g class="s">
        <path d="M205.37,581.84c2.54-5.12,6.72-5.12,9.26,0L226,604.71c2.55,5.12,0,9.32-5.62,9.32H199.61c-5.64,0-8.17-4.2-5.62-9.32Z" />
    </g>
    <path class="t" d="M205.37,578.84c2.54-5.12,6.72-5.12,9.26,0L226,601.71c2.55,5.12,0,9.32-5.62,9.32H199.61c-5.64,0-8.17-4.2-5.62-9.32Z" />
    <use width="146" height="48" transform="translate(839.57 571)" xlink:href="#f" />
    <rect class="a" x="772" y="430" width="220" height="27" />
    <text class="u" transform="translate(807.94 450.01)">
        m-a
        <tspan class="v" x="38.46" y="0.95">≦</tspan>
        <tspan x="63.21" y="0">X</tspan>
        <tspan class="v" x="78.52" y="0.95">≦</tspan>
        <tspan x="103.27" y="0">m+a</tspan>
    </text>
    <path class="t" d="M794,433.26a2,2,0,0,1,2,2v16.48a2,2,0,0,1-2,2H777a2,2,0,0,1-2-2V435.26a2,2,0,0,1,2-2h17m0-3H777a5,5,0,0,0-5,5v16.48a5,5,0,0,0,5,5h17a5,5,0,0,0,5-5V435.26a5,5,0,0,0-5-5Z" />
    <polyline class="w" points="778.45 439.6 783.28 447.6 793.09 437.15" />
    <line class="x" x1="816.59" y1="158.83" x2="896.59" y2="158.83" />
    <line class="y" x1="935.43" y1="152.62" x2="995.03" y2="152.62" />
    <polyline class="z" points="823.33 181.82 824.66 180.43 827.28 188.01 835.04 165.57 869.84 165.57" />
    <polygon class="aa" points="827.28 188.01 824.66 180.43 825.98 179.03 828.18 185.38 827.28 188.01" />
    <text class="ab" transform="translate(837.52 188.28)">
        2
        <tspan class="ac" x="13.3" y="0">p</tspan>
        <tspan class="ad" x="34.52" y="0">r</tspan>
    </text>
    <text class="ae" transform="translate(750.63 170.38)">f(x)=</text>
    <text class="ae" transform="translate(899.82 170.38)">e</text>
    <text class="af" transform="translate(848.89 151.62)">1</text>
    <text class="ag" transform="translate(928.64 159.55)">-</text>
    <text class="ah" transform="translate(943.7 148.3)">(x-m)</text>
    <text class="ah" transform="translate(981.23 142.54) scale(0.58)">2</text>
    <text class="ah" transform="translate(955.49 167.5)">
        2
        <tspan class="ai" x="8.86" y="0">r</tspan>
    </text>
    <text class="ah" transform="translate(969.44 161.74) scale(0.58)">2</text>
    <text class="aj" transform="translate(447.99 293.21)">
        r
        <tspan class="ak" x="8.5" y="0">=1</tspan>
    </text>
</svg>