<svg xmlns="http://www.w3.org/2000/svg" xmlns:xlink="http://www.w3.org/1999/xlink" viewBox="0 0 1024 648">
    <defs>.x
        <style>.a,.ak,.f,.g,.m,.n,.o,.p,.r,.w,.x,.y{fill:none;}.b{fill:#ccc;}.c{fill:#fafafa;}.d,.e{fill:#0b89dd;}.e{font-size:18px;font-family:rounded-l-mplus-1c-medium, rounded l-mplus-1c-medium;font-weight:500;}.ak,.f{stroke:#0b89dd;}.ak,.f,.g,.o,.p,.r,.w,.x{stroke-miterlimit:10;}.f{stroke-width:3px;}.g,.o,.p,.w,{stroke:#000;}.g,.m{stroke-width:1.5px;}.h{font-size:28px;}.aa,.ad,.ae,.af,.ag,.h,.q,.v{font-family:A-SOTMathCenturyStd-Regular, A SOTMathCenturyStd-Regular;}.i{font-size:38px;font-family:A-SOTGirishaStd-BoldItalic, A SOTGirishaStd-BoldItalic;}.ai,.i{font-weight:700;}.ab,.ac,.ah,.i,.u{font-style:italic;}.j{clip-path:url(#a);}.k{fill:#ffff80;}.l{clip-path:url(#b);}.m{stroke:#4472c4;}.m,.n{stroke-linecap:round;stroke-linejoin:round;}.n,.r{stroke:#ff4b00;}.ak,.n{stroke-width:4px;}.o{stroke-width:2px;}.p{stroke-dasharray:5.94 2.97;}.q{font-size:36px;}.r{stroke-dasharray:5.94 2.97;}.s{opacity:0.2;}.t{opacity:0.3;}.u{font-size:26px;fill:#ff4b00;}.ab,.ac,.ah,.u{font-family:A-SOTGirishaStd-Italic, A SOTGirishaStd-Italic;}.v{font-style:normal;}.x{stroke-width:0.6px;}.y,.z{stroke:#231815;}.y{stroke-width:1.2px;}.aa,.ah,.z{fill:#231815;}.z{stroke-width:1.11px;}.aa{font-size:25.92px;}.ab{letter-spacing:0.25em;}.ac{letter-spacing:0em;}.ad{font-size:32px;}.ae{font-size:28.8px;}.af{font-size:19.2px;}.ag{font-size:17.28px;}.ah{font-size:15.55px;}.ai{font-size:22px;font-family:A-SOTMathCenturyStd-Bold, A SOTMathCenturyStd-Bold;}.aj{font-family:HiraKakuProN-W3, HiraKakuProN W3-90ms-RKSJ-H;font-weight:400;letter-spacing:0.13em;}</style>
        <clipPath id="a">
            <rect class="a" x="290" y="52.8" width="200" height="400" />
        </clipPath>
        <clipPath id="b">
            <rect class="a" x="90" y="63.89" width="600" height="400" />
        </clipPath>

        <symbol id="c" viewBox="0 0 146 48">
            <rect class="b" y="4" width="146" height="44" rx="14" />
            <rect class="c" x="1.5" y="1.5" width="143" height="41" rx="12.5" />
            <path class="d" d="M132,3a11,11,0,0,1,11,11V30a11,11,0,0,1-11,11H14A11,11,0,0,1,3,30V14A11,11,0,0,1,14,3H132m0-3H14A14,14,0,0,0,0,14V30A14,14,0,0,0,14,44H132a14,14,0,0,0,14-14V14A14,14,0,0,0,132,0Z" />
            <rect class="a" width="146" height="48" />
            <text class="e" transform="translate(39.5 28.98)">最初に戻る</text>
            <path class="f" d="M26.1,17.59A6.5,6.5,0,1,1,18.5,24" />
            <polygon class="d" points="26.68 22.55 19.3 16.44 28.28 13.11 26.68 22.55" />
        </symbol>
        <use width="146" height="48" transform="translate(839.57 571)" xlink:href="#c" />

    </defs>
    <title>グラフ-場面3</title>
    <line class="g" x1="690" y1="557.18" x2="90" y2="557.18" />
    <line class="g" x1="90" y1="568.18" x2="90" y2="546.18" />
    <line class="g" x1="330" y1="568.18" x2="330" y2="546.18" />
    <line class="g" x1="450" y1="568.18" x2="450" y2="546.18" />
    <line class="g" x1="570" y1="568.18" x2="570" y2="546.18" />
    <line class="g" x1="210" y1="568.18" x2="210" y2="546.18" />
    <line class="g" x1="690" y1="546.18" x2="690" y2="568.18" />
    <text class="h" transform="translate(202.82 537.41)">1</text>
    <text class="h" transform="translate(82.82 537.41)">0</text>
    <text class="h" transform="translate(322.82 537.41)">2</text>
    <text class="h" transform="translate(442.82 537.41)">3</text>
    <text class="h" transform="translate(562.82 537.41)">4</text>
    <text class="h" transform="translate(682.82 537.41)">5</text>
    <text class="i" transform="translate(60.22 565.38)">r</text>
    <g class="j">
        <path class="k" d="M638,429.48a577.61,577.61,0,0,1-62.77-16.24c-21.13-6.69-41.91-14.41-62.76-21.92-20.64-7.44-41.42-14.67-62.77-19.83q-4.81-1.15-9.68-2.16a242,242,0,0,0-58.63-5.21A249.12,249.12,0,0,0,340,369.44c-8.21,1.72-16.35,3.78-24.41,6.09-21.25,6.09-42,13.77-62.76,21.3s-41.57,14.88-62.77,21a553,553,0,0,1-62.76,14.39c-12.38,2.09-24.82,3.72-37.3,5v6.6H690v-6.63C672.56,435.39,655.19,432.87,638,429.48Z" />
    </g>
    <g class="l">
        <path class="m" d="M57.4,440.08c23.4-1.58,46.76-3.94,69.9-7.83a553,553,0,0,0,62.76-14.39c21.2-6.15,42-13.51,62.77-21s41.51-15.21,62.76-21.3C337,369.38,359,365,381.37,364.12c23-.92,45.95,2,68.31,7.37,21.35,5.16,42.13,12.39,62.77,19.83,20.85,7.51,41.63,15.23,62.76,21.92A577.61,577.61,0,0,0,638,429.48a623.15,623.15,0,0,0,67.36,9.26c5.91.51,11.83.94,17.75,1.34" />
        <path class="n" d="M57.4,440.08c23.4-1.58,46.76-3.94,69.9-7.83a553,553,0,0,0,62.76-14.39c21.2-6.15,42-13.51,62.77-21s41.51-15.21,62.76-21.3C337,369.38,359,365,381.37,364.12c23-.92,45.95,2,68.31,7.37,21.35,5.16,42.13,12.39,62.77,19.83,20.85,7.51,41.63,15.23,62.76,21.92A577.61,577.61,0,0,0,638,429.48a623.15,623.15,0,0,0,67.36,9.26c5.91.51,11.83.94,17.75,1.34" />
    </g>
    <line class="o" x1="90" y1="443.89" x2="673.7" y2="443.89" />
    <path d="M670.11,443.89l-4.39-7.21.25-.16,11.75,4.67,12.28,2.7-12.28,2.7L666,451.26l-.25-.12Z" />
    <line class="p" x1="390" y1="443.89" x2="390" y2="63.89" />
    <text class="q" transform="translate(673.33 473.06)">x</text>
    <text class="q" transform="translate(374.99 478.9)">m</text>
    <line class="r" x1="290" y1="443.89" x2="290" y2="383.59" />
    <line class="r" x1="490" y1="443.89" x2="490" y2="383.59" />
    
    <g class="s">
        <path d="M565.37,581.84c2.54-5.12,6.72-5.12,9.26,0L586,604.71c2.55,5.12,0,9.32-5.62,9.32H559.61c-5.64,0-8.17-4.2-5.62-9.32Z" />
    </g>
    <path class="d" d="M565.37,578.84c2.54-5.12,6.72-5.12,9.26,0L586,601.71c2.55,5.12,0,9.32-5.62,9.32H559.61c-5.64,0-8.17-4.2-5.62-9.32Z" />
    <g class="t">
        <g class="s">
            <path d="M373.37,581.84c2.54-5.12,6.72-5.12,9.26,0L394,604.71c2.55,5.12,0,9.32-5.62,9.32H367.61c-5.64,0-8.17-4.2-5.62-9.32Z" />
        </g>
        <path class="d" d="M373.37,578.84c2.54-5.12,6.72-5.12,9.26,0L394,601.71c2.55,5.12,0,9.32-5.62,9.32H367.61c-5.64,0-8.17-4.2-5.62-9.32Z" />
    </g>
    <text class="u" transform="translate(519.23 379.02)">
        r
        <tspan class="v" x="8.5" y="0">=4</tspan>
    </text>
  
    <line class="w" x1="816.59" y1="158.83" x2="896.59" y2="158.83" />
    <line class="x" x1="935.43" y1="152.62" x2="995.03" y2="152.62" />
    <polyline class="y" points="823.33 181.82 824.66 180.43 827.28 188.01 835.04 165.57 869.84 165.57" />
    <polygon class="z" points="827.28 188.01 824.66 180.43 825.98 179.03 828.18 185.38 827.28 188.01" />
    <text class="aa" transform="translate(837.52 188.28)">
        2
        <tspan class="ab" x="13.3" y="0">p</tspan>
        <tspan class="ac" x="34.52" y="0">r</tspan>
    </text>
    <text class="ad" transform="translate(750.63 170.38)">f(x)=</text>
    <text class="ad" transform="translate(899.82 170.38)">e</text>
    <text class="ae" transform="translate(848.89 151.62)">1</text>
    <text class="af" transform="translate(928.64 159.55)">-</text>
    <text class="ag" transform="translate(943.7 148.3)">(x-m)</text>
    <text class="ag" transform="translate(981.23 142.54) scale(0.58)">2</text>
    <text class="ag" transform="translate(955.49 167.5)">
        2
        <tspan class="ah" x="8.86" y="0">r</tspan>
    </text>
    <text class="ag" transform="translate(969.44 161.74) scale(0.58)">2</text>
    <rect class="a" x="772" y="430" width="220" height="27" />
    <polygon class="z1" points="827.28 188.01 824.66 180.43 825.98 179.03 828.18 185.38 827.28 188.01" />
    <polygon class="z1" points="827.28 188.01 824.66 180.43 825.98 179.03 828.18 185.38 827.28 188.01" />
    <polygon class="z1" points="827.28 188.01 824.66 180.43 825.98 179.03 828.18 185.38 827.28 188.01" />
    <polygon class="z1" points="827.28 188.01 824.66 180.43 825.98 179.03 828.18 185.38 827.28 188.01" />
    <path class="d" d="M794,433.26a2,2,0,0,1,2,2v16.48a2,2,0,0,1-2,2H777a2,2,0,0,1-2-2V435.26a2,2,0,0,1,2-2h17m0-3H777a5,5,0,0,0-5,5v16.48a5,5,0,0,0,5,5h17a5,5,0,0,0,5-5V435.26a5,5,0,0,0-5-5Z" />
    <polyline class="ak" points="778.45 439.6 783.28 447.6 793.09 437.15" />
</svg>