<svg xmlns="http://www.w3.org/2000/svg" xmlns:xlink="http://www.w3.org/1999/xlink" viewBox="0 0 1024 648">
    <defs>
        <style>.a,.aj,.d,.f,.l,.m,.n,.o,.p,.r,.v,.w,.x{fill:none;}.b{fill:#0b89dd;}.c{font-size:18px;font-family:rounded-l-mplus-1c-medium, rounded l-mplus-1c-medium;font-weight:500;}.c,.e{fill:#fafafa;}.d{stroke:#fafafa;stroke-width:3px;}.aj,.d,.f,.o,.p,.r,.v,.w{stroke-miterlimit:10;}.f,.o,.p,.v,.w{stroke:#000;}.f,.l{stroke-width:1.5px;}.g{font-size:28px;}.ac,.ad,.ae,.af,.g,.q,.u,.z{font-family:A-SOTMathCenturyStd-Regular, A SOTMathCenturyStd-Regular;}.h{font-size:38px;font-family:A-SOTGirishaStd-BoldItalic, A SOTGirishaStd-BoldItalic;}.ah,.h{font-weight:700;}.aa,.ab,.ag,.h,.t{font-style:italic;}.i{clip-path:url(#a);}.j{fill:#ffff80;}.k{clip-path:url(#b);}.l{stroke:#4472c4;}.l,.m,.n{stroke-linecap:round;stroke-linejoin:round;}.m,.n,.r{stroke:#ff4b00;}.m,.o{stroke-width:2px;}.aj,.n{stroke-width:4px;}.p{stroke-dasharray:5.94 2.97;}.q{font-size:36px;}.r{stroke-dasharray:5.73 2.86;}.s{opacity:0.2;}.t{font-size:26px;fill:#ff4b00;}.aa,.ab,.ag,.t{font-family:A-SOTGirishaStd-Italic, A SOTGirishaStd-Italic;}.u{font-style:normal;}.w{stroke-width:0.6px;}.x,.y{stroke:#231815;}.x{stroke-width:1.2px;}.ag,.y,.z{fill:#231815;}.y{stroke-width:1.11px;}.z{font-size:25.92px;}.aa{letter-spacing:0.25em;}.ab{letter-spacing:0em;}.ac{font-size:32px;}.ad{font-size:28.8px;}.ae{font-size:19.2px;}.af{font-size:17.28px;}.ag{font-size:15.55px;}.ah{font-size:22px;font-family:A-SOTMathCenturyStd-Bold, A SOTMathCenturyStd-Bold;}.ai{font-family:HiraKakuProN-W3, HiraKakuProN W3-90ms-RKSJ-H;font-weight:400;letter-spacing:0.13em;}.aj{stroke:#0b89dd;}</style>
        <clipPath id="a">
            <rect class="a" x="330" y="52.8" width="120" height="400" />
        </clipPath>
        <clipPath id="b">
            <rect class="a" x="90" y="63.89" width="600" height="400" />
        </clipPath>
        <symbol id="c" viewBox="0 0 146 48">
            <rect class="b" y="4" width="146" height="44" rx="14" />
            <text class="c" transform="translate(39.5 32.98)">最初に戻る</text>
            <path class="d" d="M26.1,21.59A6.5,6.5,0,1,1,18.5,28" />
            <polygon class="e" points="26.68 26.55 19.3 20.44 28.28 17.11 26.68 26.55" />
        </symbol>
    </defs>
    <title>グラフ-場面4</title>
    <line class="f" x1="690" y1="557.18" x2="90" y2="557.18" />
    <line class="f" x1="90" y1="568.18" x2="90" y2="546.18" />
    <line class="f" x1="330" y1="568.18" x2="330" y2="546.18" />
    <line class="f" x1="450" y1="568.18" x2="450" y2="546.18" />
    <line class="f" x1="570" y1="568.18" x2="570" y2="546.18" />
    <line class="f" x1="210" y1="568.18" x2="210" y2="546.18" />
    <line class="f" x1="690" y1="546.18" x2="690" y2="568.18" />
    <text class="g" transform="translate(202.82 537.41)">1</text>
    <text class="g" transform="translate(82.82 537.41)">0</text>
    <text class="g" transform="translate(322.82 537.41)">2</text>
    <text class="g" transform="translate(442.82 537.41)">3</text>
    <text class="g" transform="translate(562.82 537.41)">4</text>
    <text class="g" transform="translate(682.82 537.41)">5</text>
    <text class="h" transform="translate(60.22 565.38)">r</text>
    <g class="i">
        <path class="j" d="M665,443.3l-1.82,0-3.33-.06-3.33-.06-3.33-.08-3.33-.09-3.33-.09-3.32-.11-3.33-.13-3.33-.13-3.33-.16-3.33-.17-3.33-.2-3.32-.21-3.33-.25-3.33-.26-3.33-.3-3.33-.33-3.33-.37c-1.11-.12-2.22-.26-3.33-.4s-2.21-.28-3.32-.44l-3.33-.48-3.33-.53-3.33-.58-3.33-.64q-1.67-.33-3.33-.69c-1.11-.24-2.21-.49-3.32-.75s-2.22-.53-3.33-.81-2.22-.58-3.33-.88-2.22-.62-3.33-.95-2.22-.67-3.33-1-2.22-.72-3.33-1.1-2.22-.78-3.33-1.19-2.21-.83-3.32-1.27-2.22-.89-3.33-1.36-2.22-.95-3.33-1.44-2.22-1-3.33-1.55-2.22-1.07-3.33-1.63-2.22-1.14-3.33-1.74-2.21-1.21-3.32-1.83-2.22-1.28-3.33-1.94-2.22-1.34-3.33-2-2.22-1.41-3.33-2.14-2.22-1.48-3.33-2.24-2.22-1.55-3.33-2.35-2.22-1.61-3.32-2.44-2.22-1.68-3.33-2.55-2.22-1.74-3.33-2.64-2.22-1.81-3.33-2.74-2.22-1.86-3.33-2.82l-3.33-2.91q-1.66-1.47-3.33-3l-3.32-3.06c-1.11-1-2.22-2.08-3.33-3.13s-2.22-2.12-3.33-3.19l-3.33-3.24c-1.11-1.08-2.22-2.18-3.33-3.28L476.78,370q-1.66-1.67-3.32-3.34l-3.33-3.34-3.33-3.35-3.33-3.33-3.33-3.32L456.81,350c-1.11-1.08-2.22-2.16-3.33-3.22s-2.21-2.12-3.32-3.16-2.22-2.08-3.33-3.09-2.22-2-3.33-3-2.22-1.95-3.33-2.89-2.22-1.87-3.33-2.78-2.22-1.79-3.33-2.65-2.21-1.7-3.32-2.51-2.22-1.6-3.33-2.36-2.22-1.49-3.33-2.19-2.22-1.38-3.33-2-2.22-1.26-3.33-1.84-2.22-1.13-3.33-1.64-2.22-1-3.32-1.44-2.22-.86-3.33-1.24-2.22-.71-3.33-1-2.22-.57-3.33-.8-2.22-.42-3.33-.57-2.22-.27-3.33-.35-2.22-.11-3.33-.11-2.21,0-3.32.11-2.22.2-3.33.35-2.22.34-3.33.57-2.22.49-3.33.8-2.22.64-3.33,1-2.22.79-3.33,1.24-2.22.92-3.32,1.44-2.22,1.06-3.33,1.64-2.22,1.19-3.33,1.84-2.22,1.31-3.33,2-2.22,1.43-3.33,2.19-2.22,1.55-3.33,2.36-2.22,1.65-3.33,2.51-2.21,1.75-3.32,2.65-2.22,1.83-3.33,2.78-2.22,1.91-3.33,2.89-2.22,2-3.33,3-2.22,2-3.33,3.09-2.22,2.09-3.33,3.16-2.22,2.14-3.32,3.22l-3.33,3.27L317,356.61l-3.33,3.33-3.33,3.35L307,366.63,303.7,370q-1.65,1.66-3.32,3.31c-1.11,1.1-2.22,2.2-3.33,3.28l-3.33,3.24c-1.11,1.07-2.22,2.14-3.33,3.19s-2.22,2.1-3.33,3.13l-3.33,3.06c-1.11,1-2.21,2-3.32,3l-3.33,2.91q-1.66,1.44-3.33,2.82t-3.33,2.74q-1.67,1.35-3.33,2.64c-1.11.87-2.22,1.71-3.33,2.55s-2.22,1.64-3.33,2.44-2.21,1.58-3.32,2.35-2.22,1.51-3.33,2.24-2.22,1.44-3.33,2.14-2.22,1.38-3.33,2-2.22,1.31-3.33,1.94-2.22,1.24-3.33,1.83-2.21,1.17-3.32,1.74-2.22,1.1-3.33,1.63-2.22,1.05-3.33,1.55-2.22,1-3.33,1.44-2.22.92-3.33,1.36-2.22.86-3.33,1.27-2.22.8-3.32,1.19-2.22.75-3.33,1.1-2.22.7-3.33,1-2.22.64-3.33.95-2.22.6-3.33.88-2.22.55-3.33.81l-3.33.75c-1.11.24-2.21.47-3.32.69l-3.33.64-3.33.58-3.33.53-3.33.48c-1.11.16-2.22.3-3.33.44s-2.22.28-3.32.4l-3.33.37-3.33.33-3.33.3-3.33.26-3.33.25-3.33.21-3.32.2-3.33.17-3.33.16-3.33.13-3.33.13-3.33.11-3.32.09-3.33.09-3.33.08-3.33.06-3.33.06-2.31,0v.58H665Z" />
    </g>
    <g class="k">
        <path class="l" d="M57.4,443.64c25.79,0,51.6,0,77.39-.78,24.27-.77,48.87-2.32,72.39-8.79C230.38,427.69,251.31,416,270,401c18.86-15.16,35.33-32.94,52.57-49.86,8.65-8.5,17.54-16.87,27.32-24.09,9.41-6.93,19.93-13,31.56-15.07,24.82-4.51,46.52,11.58,63.9,27.26,17.75,16,33.71,33.89,51.4,50,18,16.36,37.83,30.76,60.63,39.63,22.24,8.65,46,11.78,69.74,13.22,25.66,1.55,51.41,1.5,77.11,1.57l18.86,0" />
        <path class="m" d="M57.4,443.64c25.79,0,51.6,0,77.39-.78,24.27-.77,48.87-2.32,72.39-8.79C230.38,427.69,251.31,416,270,401c18.86-15.16,35.33-32.94,52.57-49.86,8.65-8.5,17.54-16.87,27.32-24.09,9.41-6.93,19.93-13,31.56-15.07,24.82-4.51,46.52,11.58,63.9,27.26,17.75,16,33.71,33.89,51.4,50,18,16.36,37.83,30.76,60.63,39.63,22.24,8.65,46,11.78,69.74,13.22,25.66,1.55,51.41,1.5,77.11,1.57l18.86,0" />
        <path class="n" d="M57.4,443.64c25.79,0,51.6,0,77.39-.78,24.27-.77,48.87-2.32,72.39-8.79C230.38,427.69,251.31,416,270,401c18.86-15.16,35.33-32.94,52.57-49.86,8.65-8.5,17.54-16.87,27.32-24.09,9.41-6.93,19.93-13,31.56-15.07,24.82-4.51,46.52,11.58,63.9,27.26,17.75,16,33.71,33.89,51.4,50,18,16.36,37.83,30.76,60.63,39.63,22.24,8.65,46,11.78,69.74,13.22,25.66,1.55,51.41,1.5,77.11,1.57l18.86,0" />
        <path class="n" d="M57.4,443.64c25.79,0,51.6,0,77.39-.78,24.27-.77,48.87-2.32,72.39-8.79C230.38,427.69,251.31,416,270,401c18.86-15.16,35.33-32.94,52.57-49.86,8.65-8.5,17.54-16.87,27.32-24.09,9.41-6.93,19.93-13,31.56-15.07,24.82-4.51,46.52,11.58,63.9,27.26,17.75,16,33.71,33.89,51.4,50,18,16.36,37.83,30.76,60.63,39.63,22.24,8.65,46,11.78,69.74,13.22,25.66,1.55,51.41,1.5,77.11,1.57l18.86,0" />
        <path class="n" d="M57.4,443.64c25.79,0,51.6,0,77.39-.78,24.27-.77,48.87-2.32,72.39-8.79C230.38,427.69,251.31,416,270,401c18.86-15.16,35.33-32.94,52.57-49.86,8.65-8.5,17.54-16.87,27.32-24.09,9.41-6.93,19.93-13,31.56-15.07,24.82-4.51,46.52,11.58,63.9,27.26,17.75,16,33.71,33.89,51.4,50,18,16.36,37.83,30.76,60.63,39.63,22.24,8.65,46,11.78,69.74,13.22,25.66,1.55,51.41,1.5,77.11,1.57l18.86,0" />
    </g>
    <line class="o" x1="90" y1="443.89" x2="673.7" y2="443.89" />
    <path d="M670.11,443.89l-4.39-7.21.25-.16,11.75,4.67,12.28,2.7-12.28,2.7L666,451.26l-.25-.12Z" />
    <line class="p" x1="390" y1="443.89" x2="390" y2="63.89" />
    <text class="q" transform="translate(673.33 473.06)">x</text>
    <text class="q" transform="translate(374.99 478.9)">m</text>
    <line class="r" x1="450" y1="443.89" x2="450" y2="343.64" />
    <line class="r" x1="330" y1="443.89" x2="330" y2="343.64" />
    <g class="s">
        <path d="M373.37,581.84c2.54-5.12,6.72-5.12,9.26,0L394,604.71c2.55,5.12,0,9.32-5.62,9.32H367.61c-5.64,0-8.17-4.2-5.62-9.32Z" />
    </g>
    <path class="b" d="M373.37,578.84c2.54-5.12,6.72-5.12,9.26,0L394,601.71c2.55,5.12,0,9.32-5.62,9.32H367.61c-5.64,0-8.17-4.2-5.62-9.32Z" />
    <text class="t" transform="translate(519.23 379.02)">
        r
        <tspan class="u" x="8.5" y="0">=2.4</tspan>
    </text>
    <use width="146" height="48" transform="translate(839.57 571)" xlink:href="#c" />
    <line class="v" x1="816.59" y1="158.83" x2="896.59" y2="158.83" />
    <line class="w" x1="935.43" y1="152.62" x2="995.03" y2="152.62" />
    <polyline class="x" points="823.33 181.82 824.66 180.43 827.28 188.01 835.04 165.57 869.84 165.57" />
    <polygon class="y" points="827.28 188.01 824.66 180.43 825.98 179.03 828.18 185.38 827.28 188.01" />
    <text class="z" transform="translate(837.52 188.28)">
        2
        <tspan class="aa" x="13.3" y="0">p</tspan>
        <tspan class="ab" x="34.52" y="0">r</tspan>
    </text>
    <text class="ac" transform="translate(750.63 170.38)">f(x)=</text>
    <text class="ac" transform="translate(899.82 170.38)">e</text>
    <text class="ad" transform="translate(848.89 151.62)">1</text>
    <text class="ae" transform="translate(928.64 159.55)">-</text>
    <text class="af" transform="translate(943.7 148.3)">(x-m)</text>
    <text class="af" transform="translate(981.23 142.54) scale(0.58)">2</text>
    <text class="af" transform="translate(955.49 167.5)">
        2
        <tspan class="ag" x="8.86" y="0">r</tspan>
    </text>
    <text class="af" transform="translate(969.44 161.74) scale(0.58)">2</text>
    <rect class="a" x="772" y="430" width="220" height="27" />
    <text class="ah" transform="translate(807.94 450.01)">
        m-a
        <tspan class="ai" x="38.46" y="0.95">≦</tspan>
        <tspan x="63.21" y="0">X</tspan>
        <tspan class="ai" x="78.52" y="0.95">≦</tspan>
        <tspan x="103.27" y="0">m+a</tspan>
    </text>
    <path class="b" d="M794,433.26a2,2,0,0,1,2,2v16.48a2,2,0,0,1-2,2H777a2,2,0,0,1-2-2V435.26a2,2,0,0,1,2-2h17m0-3H777a5,5,0,0,0-5,5v16.48a5,5,0,0,0,5,5h17a5,5,0,0,0,5-5V435.26a5,5,0,0,0-5-5Z" />
    <polyline class="aj" points="778.45 439.6 783.28 447.6 793.09 437.15" />
</svg>