<svg xmlns="http://www.w3.org/2000/svg" xmlns:xlink="http://www.w3.org/1999/xlink" viewBox="0 0 1024 648">
    <defs>
        <style>.a,.ag,.f,.g,.k,.l,.m,.n,.s,.t,.u{fill:none;}
            .b{fill:#ccc;}.c{fill:#fafafa;}
            .d,.e{fill:#0b89dd;}
            .e{font-size:18px;font-family:rounded-l-mplus-1c-medium, rounded l-mplus-1c-medium;font-weight:500;}
            .f{stroke:#0b89dd;stroke-width:3px;}.ag,.f,.g,.m,.n,.s,.t{stroke-miterlimit:10;}
            .g,.m,.n,.s,.t{stroke:#000;}
            .g,.k{stroke-width:1.5px;}.h{font-size:28px;}.aa,.ab,.ac,.h,.o,.r,.w,.z{font-family:A-SOTMathCenturyStd-Regular, A SOTMathCenturyStd-Regular;}.i{font-size:38px;font-family:A-SOTGirishaStd-BoldItalic, A SOTGirishaStd-BoldItalic;}.ae,.i{font-weight:700;}.ad,.i,.q,.x,.y{font-style:italic;}.j{clip-path:url(#a);}.k{stroke:#4472c4;}.k,.l{stroke-linecap:round;stroke-linejoin:round;}.l{stroke:#ff4b00;}.ag,.l{stroke-width:4px;}.m{stroke-width:2px;}.n{stroke-dasharray:5.94 2.97;}.o{font-size:36px;}.p{opacity:0.2;}.q{font-size:26px;fill:#ff4b00;}.ad,.q,.x,.y{font-family:A-SOTGirishaStd-Italic, A SOTGirishaStd-Italic;}.r{font-style:normal;}.t{stroke-width:0.6px;}.u,.v{stroke:#231815;}.u{stroke-width:1.2px;}.ad,.v,.w{fill:#231815;}.v{stroke-width:1.11px;}.w{font-size:25.92px;}.x{letter-spacing:0.25em;}.y{letter-spacing:0em;}.z{font-size:32px;}.aa{font-size:28.8px;}.ab{font-size:19.2px;}.ac{font-size:17.28px;}.ad{font-size:15.55px;}.ae{font-size:22px;font-family:A-SOTMathCenturyStd-Bold, A SOTMathCenturyStd-Bold;}.af{font-family:HiraKakuProN-W3, HiraKakuProN W3-90ms-RKSJ-H;font-weight:400;letter-spacing:0.13em;}.ag{stroke:#fff;}</style>
        <clipPath id="a">
            <rect class="a" x="90" y="63.89" width="600" height="400" />
        </clipPath>
        <symbol id="b" viewBox="0 0 146 48">
            <rect class="b" y="4" width="146" height="44" rx="14" />
            <rect class="c" x="1.5" y="1.5" width="143" height="41" rx="12.5" />
            <path class="d" d="M132,3a11,11,0,0,1,11,11V30a11,11,0,0,1-11,11H14A11,11,0,0,1,3,30V14A11,11,0,0,1,14,3H132m0-3H14A14,14,0,0,0,0,14V30A14,14,0,0,0,14,44H132a14,14,0,0,0,14-14V14A14,14,0,0,0,132,0Z" />
            <rect class="a" width="146" height="48" />
            <text class="e" transform="translate(39.5 28.98)">最初に戻る</text>
            <path class="f" d="M26.1,17.59A6.5,6.5,0,1,1,18.5,24" />
            <polygon class="d" points="26.68 22.55 19.3 16.44 28.28 13.11 26.68 22.55" />
        </symbol>
    </defs>
    <title>初期状態</title>
    <line class="g" x1="690" y1="557.18" x2="90" y2="557.18" />
    <line class="g" x1="90" y1="568.18" x2="90" y2="546.18" />
    <line class="g" x1="330" y1="568.18" x2="330" y2="546.18" />
    <line class="g" x1="450" y1="568.18" x2="450" y2="546.18" />
    <line class="g" x1="570" y1="568.18" x2="570" y2="546.18" />
    <line class="g" x1="210" y1="568.18" x2="210" y2="546.18" />
    <line class="g" x1="690" y1="546.18" x2="690" y2="568.18" />
    <text class="h" transform="translate(202.82 537.41)">1</text>
    <text class="h" transform="translate(82.82 537.41)">0</text>
    <text class="h" transform="translate(322.82 537.41)">2</text>
    <text class="h" transform="translate(442.82 537.41)">3</text>
    <text class="h" transform="translate(562.82 537.41)">4</text>
    <text class="h" transform="translate(682.82 537.41)">5</text>
    <text class="i" transform="translate(60.22 565.38)">r</text>
    <g class="j">
        <path class="k" d="M57.4,443.64H160.58l3.33,0h3.33l3.33,0,3.33,0,3.32,0,3.33,0,3.33-.05,3.33-.05,3.33-.07,3.33-.09,3.32-.1,3.33-.12,3.33-.15,3.33-.17,3.33-.21,3.33-.25c1.11-.08,2.22-.18,3.33-.29l3.32-.33,3.33-.4,3.33-.46,3.33-.54c1.11-.2,2.22-.4,3.33-.62s2.22-.46,3.33-.72,2.21-.53,3.32-.82,2.22-.6,3.33-.94,2.22-.69,3.33-1.07,2.22-.78,3.33-1.21,2.22-.88,3.33-1.36,2.22-1,3.33-1.54,2.22-1.12,3.32-1.72,2.22-1.25,3.33-1.93,2.22-1.38,3.33-2.13,2.22-1.53,3.33-2.36,2.22-1.69,3.33-2.6,2.22-1.86,3.33-2.85,2.22-2,3.33-3.12,2.21-2.21,3.32-3.39,2.22-2.39,3.33-3.67,2.22-2.58,3.33-3.95,2.22-2.78,3.33-4.24,2.22-3,3.33-4.53,2.22-3.17,3.33-4.82,2.22-3.35,3.32-5.09,2.22-3.54,3.33-5.37,2.22-3.71,3.33-5.62,2.22-3.87,3.33-5.86,2.22-4,3.33-6.07,2.22-4.15,3.33-6.26,2.22-4.26,3.33-6.42,2.21-4.35,3.32-6.55,2.22-4.41,3.33-6.63l3.33-6.67,3.33-6.68c1.11-2.21,2.22-4.43,3.33-6.63s2.22-4.37,3.33-6.53,2.22-4.28,3.32-6.38,2.22-4.16,3.33-6.18,2.22-4,3.33-5.92,2.22-3.81,3.33-5.63,2.22-3.57,3.33-5.26,2.22-3.32,3.33-4.86,2.22-3,3.33-4.41,2.21-2.7,3.32-3.91,2.22-2.35,3.33-3.38a41.59,41.59,0,0,1,3.33-2.82,32.1,32.1,0,0,1,3.33-2.22,24.06,24.06,0,0,1,3.33-1.6,19.92,19.92,0,0,1,3.33-1,17.43,17.43,0,0,1,6.65,0,19.92,19.92,0,0,1,3.33,1,24.06,24.06,0,0,1,3.33,1.6,32.1,32.1,0,0,1,3.33,2.22,41.59,41.59,0,0,1,3.33,2.82q1.67,1.55,3.33,3.38c1.1,1.21,2.21,2.52,3.32,3.91s2.22,2.87,3.33,4.41,2.22,3.17,3.33,4.86,2.22,3.45,3.33,5.26,2.22,3.7,3.33,5.63,2.22,3.91,3.33,5.92,2.21,4.09,3.32,6.18,2.22,4.23,3.33,6.38,2.22,4.34,3.33,6.53l3.33,6.63,3.33,6.68,3.33,6.67,3.32,6.63c1.11,2.2,2.22,4.39,3.33,6.55s2.22,4.3,3.33,6.42,2.22,4.2,3.33,6.26,2.22,4.08,3.33,6.07,2.22,3.95,3.33,5.86,2.22,3.79,3.33,5.62,2.21,3.62,3.32,5.37,2.22,3.44,3.33,5.09,2.22,3.26,3.33,4.82,2.22,3.07,3.33,4.53,2.22,2.88,3.33,4.24,2.22,2.68,3.33,3.95,2.21,2.5,3.32,3.67,2.22,2.31,3.33,3.39,2.22,2.12,3.33,3.12,2.22,1.94,3.33,2.85,2.22,1.77,3.33,2.6,2.22,1.61,3.33,2.36,2.22,1.46,3.33,2.13,2.21,1.32,3.32,1.93,2.22,1.17,3.33,1.72,2.22,1.05,3.33,1.54,2.22.93,3.33,1.36,2.22.83,3.33,1.21,2.22.74,3.33,1.07,2.21.65,3.32.94,2.22.56,3.33.82,2.22.49,3.33.72,2.22.42,3.33.62l3.33.54,3.33.46,3.33.4c1.1.12,2.21.23,3.32.33s2.22.21,3.33.29l3.33.25,3.33.21,3.33.17L580,443l3.32.12,3.33.1,3.33.09,3.33.07,3.33.05,3.33.05,3.32,0,3.33,0,3.33,0,3.33,0h3.33l3.33,0H723.09" />
        <path class="l" d="M57.4,443.64H160.58l3.33,0h3.33l3.33,0,3.33,0,3.32,0,3.33,0,3.33-.05,3.33-.05,3.33-.07,3.33-.09,3.32-.1,3.33-.12,3.33-.15,3.33-.17,3.33-.21,3.33-.25c1.11-.08,2.22-.18,3.33-.29l3.32-.33,3.33-.4,3.33-.46,3.33-.54c1.11-.2,2.22-.4,3.33-.62s2.22-.46,3.33-.72,2.21-.53,3.32-.82,2.22-.6,3.33-.94,2.22-.69,3.33-1.07,2.22-.78,3.33-1.21,2.22-.88,3.33-1.36,2.22-1,3.33-1.54,2.22-1.12,3.32-1.72,2.22-1.25,3.33-1.93,2.22-1.38,3.33-2.13,2.22-1.53,3.33-2.36,2.22-1.69,3.33-2.6,2.22-1.86,3.33-2.85,2.22-2,3.33-3.12,2.21-2.21,3.32-3.39,2.22-2.39,3.33-3.67,2.22-2.58,3.33-3.95,2.22-2.78,3.33-4.24,2.22-3,3.33-4.53,2.22-3.17,3.33-4.82,2.22-3.35,3.32-5.09,2.22-3.54,3.33-5.37,2.22-3.71,3.33-5.62,2.22-3.87,3.33-5.86,2.22-4,3.33-6.07,2.22-4.15,3.33-6.26,2.22-4.26,3.33-6.42,2.21-4.35,3.32-6.55,2.22-4.41,3.33-6.63l3.33-6.67,3.33-6.68c1.11-2.21,2.22-4.43,3.33-6.63s2.22-4.37,3.33-6.53,2.22-4.28,3.32-6.38,2.22-4.16,3.33-6.18,2.22-4,3.33-5.92,2.22-3.81,3.33-5.63,2.22-3.57,3.33-5.26,2.22-3.32,3.33-4.86,2.22-3,3.33-4.41,2.21-2.7,3.32-3.91,2.22-2.35,3.33-3.38a41.59,41.59,0,0,1,3.33-2.82,32.1,32.1,0,0,1,3.33-2.22,24.06,24.06,0,0,1,3.33-1.6,19.92,19.92,0,0,1,3.33-1,17.43,17.43,0,0,1,6.65,0,19.92,19.92,0,0,1,3.33,1,24.06,24.06,0,0,1,3.33,1.6,32.1,32.1,0,0,1,3.33,2.22,41.59,41.59,0,0,1,3.33,2.82q1.67,1.55,3.33,3.38c1.1,1.21,2.21,2.52,3.32,3.91s2.22,2.87,3.33,4.41,2.22,3.17,3.33,4.86,2.22,3.45,3.33,5.26,2.22,3.7,3.33,5.63,2.22,3.91,3.33,5.92,2.21,4.09,3.32,6.18,2.22,4.23,3.33,6.38,2.22,4.34,3.33,6.53l3.33,6.63,3.33,6.68,3.33,6.67,3.32,6.63c1.11,2.2,2.22,4.39,3.33,6.55s2.22,4.3,3.33,6.42,2.22,4.2,3.33,6.26,2.22,4.08,3.33,6.07,2.22,3.95,3.33,5.86,2.22,3.79,3.33,5.62,2.21,3.62,3.32,5.37,2.22,3.44,3.33,5.09,2.22,3.26,3.33,4.82,2.22,3.07,3.33,4.53,2.22,2.88,3.33,4.24,2.22,2.68,3.33,3.95,2.21,2.5,3.32,3.67,2.22,2.31,3.33,3.39,2.22,2.12,3.33,3.12,2.22,1.94,3.33,2.85,2.22,1.77,3.33,2.6,2.22,1.61,3.33,2.36,2.22,1.46,3.33,2.13,2.21,1.32,3.32,1.93,2.22,1.17,3.33,1.72,2.22,1.05,3.33,1.54,2.22.93,3.33,1.36,2.22.83,3.33,1.21,2.22.74,3.33,1.07,2.21.65,3.32.94,2.22.56,3.33.82,2.22.49,3.33.72,2.22.42,3.33.62l3.33.54,3.33.46,3.33.4c1.1.12,2.21.23,3.32.33s2.22.21,3.33.29l3.33.25,3.33.21,3.33.17L580,443l3.32.12,3.33.1,3.33.09,3.33.07,3.33.05,3.33.05,3.32,0,3.33,0,3.33,0,3.33,0h3.33l3.33,0H723.09" />
    </g>
    <line class="m" x1="90" y1="443.89" x2="673.7" y2="443.89" />
    <path d="M670.11,443.89l-4.39-7.21.25-.16,11.75,4.67,12.28,2.7-12.28,2.7L666,451.26l-.25-.12Z" />
    <line class="n" x1="390" y1="443.89" x2="390" y2="63.89" />
    <text class="o" transform="translate(673.33 473.06)">x</text>
    <text class="o" transform="translate(374.99 478.9)">m</text>
    <g class="p">
        <path d="M289.37,581.84c2.54-5.12,6.72-5.12,9.26,0L310,604.71c2.55,5.12,0,9.32-5.62,9.32H283.61c-5.64,0-8.17-4.2-5.62-9.32Z" />
    </g>
    <path class="d" d="M289.37,578.84c2.54-5.12,6.72-5.12,9.26,0L310,601.71c2.55,5.12,0,9.32-5.62,9.32H283.61c-5.64,0-8.17-4.2-5.62-9.32Z" />
    <text class="q" transform="translate(449.53 300.9)">
        r
        <tspan class="r" x="8.5" y="0">=1.7</tspan>
    </text>
    <use width="146" height="48" transform="translate(839.57 571)" xlink:href="#b" />
    <line class="s" x1="816.59" y1="158.83" x2="896.59" y2="158.83" />
    <line class="t" x1="935.43" y1="152.62" x2="995.03" y2="152.62" />
    <polyline class="u" points="823.33 181.82 824.66 180.43 827.28 188.01 835.04 165.57 869.84 165.57" />
    <polygon class="v" points="827.28 188.01 824.66 180.43 825.98 179.03 828.18 185.38 827.28 188.01" />
    <text class="w" transform="translate(837.52 188.28)">
        2
        <tspan class="x" x="13.3" y="0">p</tspan>
        <tspan class="y" x="34.52" y="0">r</tspan>
    </text>
    <text class="z" transform="translate(750.63 170.38)">f(x)=</text>
    <text class="z" transform="translate(899.82 170.38)">e</text>
    <text class="aa" transform="translate(848.89 151.62)">1</text>
    <text class="ab" transform="translate(928.64 159.55)">-</text>
    <text class="ac" transform="translate(943.7 148.3)">(x-m)</text>
    <text class="ac" transform="translate(981.23 142.54) scale(0.58)">2</text>
    <text class="ac" transform="translate(955.49 167.5)">
        2
        <tspan class="ad" x="8.86" y="0">r</tspan>
    </text>
    <text class="ac" transform="translate(969.44 161.74) scale(0.58)">2</text>
    <rect class="a" x="772" y="430" width="220" height="27" />
    <text class="ae" transform="translate(807.94 450.01)">
        m-a
        <tspan class="af" x="38.46" y="0.95">≦</tspan>
        <tspan x="63.21" y="0">X</tspan>
        <tspan class="af" x="78.52" y="0.95">≦</tspan>
        <tspan x="103.27" y="0">m+a</tspan>
    </text>
    <path class="d" d="M794,433.26a2,2,0,0,1,2,2v16.48a2,2,0,0,1-2,2H777a2,2,0,0,1-2-2V435.26a2,2,0,0,1,2-2h17m0-3H777a5,5,0,0,0-5,5v16.48a5,5,0,0,0,5,5h17a5,5,0,0,0,5-5V435.26a5,5,0,0,0-5-5Z" />
    <polyline class="ag" points="778.45 439.6 783.28 447.6 793.09 437.15" />
</svg>